<?xml version="1.0" standalone="no"?>
<!DOCTYPE svg PUBLIC "-//W3C//DTD SVG 20010904//EN"
 "http://www.w3.org/TR/2001/REC-SVG-20010904/DTD/svg10.dtd">
<svg version="1.0" xmlns="http://www.w3.org/2000/svg"
 width="64.000000pt" height="64.000000pt" viewBox="0 0 64.000000 64.000000"
 preserveAspectRatio="xMidYMid meet">

<g transform="translate(0.000000,64.000000) scale(0.100000,-0.100000)"
fill="#11468F" stroke="none">
<path d="M92 623 c-4 -11 -18 -18 -32 -18 -20 0 -25 -5 -25 -25 0 -14 -7 -28
-17 -32 -23 -9 -23 -47 0 -56 10 -4 17 -18 17 -32 0 -21 4 -25 27 -23 18 1 28
-4 31 -18 7 -26 47 -25 54 1 4 15 11 18 28 14 13 -3 26 -1 30 5 3 6 11 9 16 6
16 -10 10 -32 -11 -38 -27 -7 -27 -47 0 -54 17 -5 19 -11 14 -38 -6 -36 14
-53 44 -36 12 7 19 4 27 -12 15 -32 43 -33 56 -3 10 21 15 23 31 15 32 -17 51
-3 44 32 -5 25 -2 32 14 36 27 7 27 53 1 60 -14 3 -18 13 -17 36 1 30 -1 32
-31 31 -24 -1 -34 3 -38 17 -9 26 -52 25 -60 -1 -5 -15 -12 -19 -31 -14 -13 3
-30 1 -38 -5 -10 -9 -15 -8 -19 3 -4 9 2 17 14 21 25 8 25 45 0 52 -14 3 -19
13 -18 31 2 23 -2 27 -25 27 -18 -1 -30 5 -34 17 -7 23 -42 23 -52 1z m75 -39
c18 6 20 3 15 -19 -3 -21 0 -27 17 -32 27 -7 27 -19 0 -26 -17 -5 -20 -11 -15
-32 6 -23 4 -25 -19 -19 -21 5 -27 2 -32 -15 -7 -27 -19 -27 -26 0 -5 17 -11
20 -32 15 -23 -6 -25 -4 -19 19 5 21 2 27 -15 32 -11 3 -21 9 -21 13 0 4 10
10 21 13 18 5 20 11 15 33 -6 21 -4 25 8 21 23 -9 46 2 46 22 0 12 5 11 19 -8
13 -16 24 -21 38 -17z m217 -130 c27 7 34 -2 14 -22 -13 -13 6 -42 28 -42 8 0
14 -4 14 -10 0 -5 -4 -10 -9 -10 -21 0 -41 -31 -31 -49 11 -22 2 -35 -15 -21
-17 14 -40 4 -53 -23 l-11 -22 -6 22 c-8 26 -33 37 -50 23 -15 -13 -28 0 -15
15 14 17 4 40 -23 53 l-22 11 22 6 c25 8 38 34 23 49 -18 18 -11 25 24 19 29
-4 34 -2 40 18 l6 24 19 -24 c14 -19 24 -22 45 -17z"/>
<path d="M88 559 c-25 -14 -24 -65 1 -79 27 -14 47 -13 65 6 44 44 -12 105
-66 73z m57 -29 c8 -26 -1 -40 -26 -40 -22 0 -34 22 -25 45 8 22 44 18 51 -5z"/>
<path d="M281 411 c-16 -30 -13 -56 9 -76 16 -15 26 -17 47 -9 37 13 49 37 37
71 -8 23 -16 29 -46 31 -28 2 -39 -1 -47 -17z m76 -17 c8 -22 -10 -49 -32 -49
-22 0 -40 27 -32 49 8 21 56 21 64 0z"/>
<path d="M250 550 c0 -6 64 -10 173 -10 121 0 177 -4 185 -12 8 -8 12 -58 12
-160 l0 -148 -295 0 -295 0 0 100 c0 60 -4 100 -10 100 -14 0 -13 -285 0 -311
10 -18 24 -19 305 -19 281 0 295 1 305 19 6 12 10 101 10 219 0 180 -2 200
-18 215 -16 15 -45 17 -195 17 -111 0 -177 -4 -177 -10z m368 -397 l-3 -38
-290 0 -290 0 -3 38 -3 37 296 0 296 0 -3 -37z"/>
<path d="M304 166 c-9 -24 4 -48 23 -44 12 2 18 12 18 28 0 29 -32 41 -41 16z"/>
<path d="M230 40 c0 -13 -7 -20 -20 -20 -11 0 -20 -4 -20 -10 0 -6 52 -10 135
-10 83 0 135 4 135 10 0 6 -9 10 -20 10 -13 0 -20 7 -20 20 0 11 -4 20 -10 20
-5 0 -10 -9 -10 -20 0 -18 -7 -20 -75 -20 -68 0 -75 2 -75 20 0 11 -4 20 -10
20 -5 0 -10 -9 -10 -20z"/>
</g>
</svg>
