<?xml version="1.0" standalone="no"?>
<!DOCTYPE svg PUBLIC "-//W3C//DTD SVG 20010904//EN" "http://www.w3.org/TR/2001/REC-SVG-20010904/DTD/svg10.dtd">
<svg version="1.0" xmlns="http://www.w3.org/2000/svg" width="64.000000pt" height="64.000000pt" viewBox="0 0 64.000000 64.000000" preserveAspectRatio="xMidYMid meet">
	<g transform="translate(0.000000,64.000000) scale(0.100000,-0.100000)" fill="#11468F" stroke="none">
		<path d="M452 600 l-27 -39 -175 -1 c-142 0 -180 -3 -198 -16 -21 -15 -22 -20
-22 -199 0 -225 -7 -215 146 -215 l102 0 -7 -28 c-5 -20 -15 -28 -37 -32 -17
-3 -33 -14 -39 -28 -6 -13 -19 -22 -32 -22 -13 0 -23 -4 -23 -10 0 -6 67 -10
180 -10 113 0 180 4 180 10 0 6 -10 10 -23 10 -13 0 -26 9 -32 22 -6 14 -22
25 -39 28 -22 4 -32 12 -37 32 l-7 28 102 0 c153 0 146 -10 146 215 l0 185
-25 16 c-14 9 -25 26 -25 39 0 12 -8 29 -18 38 -31 28 -60 21 -90 -23z m78
-12 c0 -13 -20 -45 -44 -73 -40 -45 -46 -48 -60 -35 -14 14 -12 21 22 72 27
42 43 58 60 58 16 0 22 -6 22 -22z m-136 -70 c-23 -42 -58 -78 -74 -78 -10 0
-28 -12 -40 -27 -17 -22 -21 -37 -17 -71 6 -52 10 -57 35 -43 12 6 35 11 53
11 40 0 69 25 69 59 0 39 103 161 136 161 l24 0 0 -130 0 -130 -197 -2 c-146
-2 -197 -6 -201 -15 -3 -10 41 -13 197 -13 l201 0 0 -40 0 -40 -260 0 -260 0
0 40 c0 33 3 40 20 40 11 0 20 7 20 15 0 8 -9 15 -20 15 -19 0 -20 7 -20 130
l0 130 171 0 c133 0 169 -3 163 -12z m22 -87 c-8 -7 -22 -11 -31 -8 -13 5 -14
11 -5 27 9 17 14 18 30 8 17 -11 18 -15 6 -27z m-40 -36 c20 -20 23 -28 14
-45 -8 -15 -21 -20 -55 -20 -45 0 -45 0 -45 35 0 56 44 72 86 30z m-36 -272
c0 -5 3 -18 6 -30 6 -20 3 -23 -25 -23 -33 0 -34 2 -25 38 6 20 44 33 44 15z
m78 -91 c3 -9 -21 -12 -97 -12 -93 0 -113 5 -94 24 13 12 186 2 191 -12z" />
		<path d="M136 261 c-4 -7 -5 -15 -2 -18 9 -9 19 4 14 18 -4 11 -6 11 -12 0z" />
	</g>
</svg>
