<?xml version="1.0" standalone="no"?>
<!DOCTYPE svg PUBLIC "-//W3C//DTD SVG 20010904//EN" "http://www.w3.org/TR/2001/REC-SVG-20010904/DTD/svg10.dtd">
<svg version="1.0" xmlns="http://www.w3.org/2000/svg" width="64.000000pt" height="64.000000pt" viewBox="0 0 64.000000 64.000000" preserveAspectRatio="xMidYMid meet">
	<g transform="translate(0.000000,64.000000) scale(0.100000,-0.100000)" fill="#041562" stroke="none">
		<path  d="M170 635 c0 -5 14 -24 32 -42 l31 -32 -37 -42 -38 -41 38 -39 38 -39
-39 -40 -39 -40 37 -38 37 -38 -35 -34 c-19 -19 -35 -39 -35 -45 0 -6 16 -26
35 -45 l35 -34 -42 -46 -43 -45 47 45 48 44 -37 38 -37 38 39 40 39 40 -39 40
-39 40 39 40 39 40 -37 37 -37 37 42 43 42 43 -42 42 c-23 24 -42 38 -42 33z" />
		<path  d="M290 635 c0 -5 16 -25 35 -45 l35 -36 -40 -39 -40 -39 37 -38 37 -38
-39 -40 -39 -40 37 -38 37 -38 -35 -34 c-19 -19 -35 -39 -35 -45 0 -6 16 -26
35 -45 l35 -34 -42 -46 -43 -45 47 45 48 44 -37 38 -37 38 39 40 39 40 -39 40
-39 40 39 40 39 40 -37 37 -37 37 42 43 42 43 -42 42 c-23 24 -42 38 -42 33z" />
		<path d="M410 635 c0 -5 16 -25 35 -45 l35 -36 -40 -39 -40 -39 37 -38 37 -38
-39 -40 -39 -40 37 -38 37 -38 -35 -34 c-19 -19 -35 -39 -35 -45 0 -6 16 -26
35 -45 l35 -34 -42 -46 -43 -45 47 45 48 44 -37 38 -37 38 39 40 39 40 -39 40
-39 40 39 40 39 40 -37 37 -37 37 42 43 42 43 -42 42 c-23 24 -42 38 -42 33z" />
	</g>
</svg>
